<svg width="38" height="38" viewBox="0 0 38 38" fill="none" xmlns="http://www.w3.org/2000/svg">
<g clip-path="url(#clip0_31_496)">
<path d="M19 38C29.4934 38 38 29.4934 38 19C38 8.50659 29.4934 0 19 0C8.50659 0 0 8.50659 0 19C0 29.4934 8.50659 38 19 38Z" fill="#5865F2"/>
<path d="M25.5843 12.9511C24.3524 12.3857 23.0524 11.9826 21.7168 11.7518C21.7046 11.7495 21.692 11.751 21.6808 11.7563C21.6696 11.7616 21.6604 11.7702 21.6544 11.7811C21.4771 12.1025 21.3161 12.4327 21.172 12.7704C19.7324 12.5518 18.268 12.5518 16.8283 12.7704C16.6836 12.4319 16.5203 12.1016 16.3392 11.7811C16.333 11.7705 16.3237 11.762 16.3126 11.7568C16.3015 11.7515 16.289 11.7498 16.2769 11.7518C14.9416 11.9822 13.6421 12.3854 12.4108 12.9511C12.4002 12.9556 12.3913 12.9633 12.3852 12.973C9.92228 16.6532 9.24763 20.2428 9.57865 23.7871C9.57959 23.7958 9.58228 23.8042 9.58655 23.8119C9.59082 23.8195 9.59659 23.8262 9.60351 23.8316C11.0377 24.894 12.642 25.705 14.3479 26.23C14.36 26.2336 14.3728 26.2334 14.3848 26.2295C14.3967 26.2256 14.4072 26.2181 14.4147 26.2081C14.781 25.7094 15.1056 25.1814 15.3852 24.6295C15.389 24.6219 15.3911 24.6136 15.3915 24.6051C15.3919 24.5967 15.3905 24.5882 15.3874 24.5803C15.3842 24.5724 15.3795 24.5653 15.3734 24.5594C15.3673 24.5535 15.3601 24.5489 15.3521 24.546C14.8402 24.3504 14.3446 24.1147 13.87 23.8409C13.8614 23.8358 13.8541 23.8287 13.8489 23.8202C13.8437 23.8117 13.8407 23.802 13.8401 23.792C13.8395 23.782 13.8414 23.7721 13.8455 23.763C13.8497 23.7539 13.8561 23.746 13.864 23.74C13.9635 23.6657 14.0633 23.5878 14.1583 23.5091C14.1668 23.5022 14.177 23.4978 14.1878 23.4963C14.1986 23.4949 14.2096 23.4965 14.2195 23.501C17.3289 24.9208 20.6955 24.9208 23.7682 23.501C23.7782 23.4962 23.7894 23.4943 23.8004 23.4956C23.8114 23.4969 23.8219 23.5014 23.8305 23.5084C23.9255 23.5867 24.0253 23.6654 24.1274 23.74C24.1354 23.7459 24.1418 23.7538 24.146 23.7628C24.1503 23.7719 24.1522 23.7818 24.1517 23.7918C24.1512 23.8018 24.1482 23.8115 24.1431 23.82C24.1379 23.8286 24.1308 23.8358 24.1222 23.8409C23.6481 24.1173 23.1516 24.3532 22.6378 24.546C22.6298 24.549 22.6225 24.5537 22.6165 24.5597C22.6104 24.5658 22.6057 24.573 22.6026 24.581C22.5996 24.589 22.5983 24.5976 22.5988 24.6061C22.5993 24.6147 22.6016 24.623 22.6055 24.6306C22.8897 25.1795 23.2138 25.7069 23.5752 26.2085C23.5825 26.2188 23.5929 26.2265 23.6049 26.2306C23.6169 26.2347 23.6299 26.2348 23.642 26.2311C25.3502 25.7077 26.9566 24.8966 28.392 23.8327C28.399 23.8276 28.4049 23.8211 28.4092 23.8135C28.4134 23.806 28.4161 23.7976 28.4169 23.7889C28.8132 19.6906 27.7533 16.1303 25.6077 12.9745C25.6029 12.9642 25.5946 12.9559 25.5843 12.9511V12.9511ZM15.849 21.6292C14.9127 21.6292 14.142 20.7697 14.142 19.7143C14.142 18.6589 14.8983 17.7995 15.849 17.7995C16.8076 17.7995 17.5716 18.6664 17.556 19.7143C17.5568 20.7697 16.8001 21.6292 15.849 21.6292ZM22.1624 21.6292C21.2262 21.6292 20.4554 20.7697 20.4554 19.7143C20.4554 18.6589 21.2117 17.7995 22.1624 17.7995C23.121 17.7995 23.8851 18.6664 23.8695 19.7143C23.8698 20.7697 23.121 21.6292 22.1624 21.6292Z" fill="white"/>
</g>
<defs>
<clipPath id="clip0_31_496">
<rect width="38" height="38" fill="white"/>
</clipPath>
</defs>
</svg>
