<svg width="16" height="4" viewBox="0 0 16 4" fill="none" xmlns="http://www.w3.org/2000/svg">
<path fill-rule="evenodd" clip-rule="evenodd" d="M2.39999 0.133331C1.37333 0.133331 0.533325 0.973331 0.533325 2C0.533325 3.02666 1.37333 3.86666 2.39999 3.86666C3.42666 3.86666 4.26666 3.02666 4.26666 2C4.26666 0.973331 3.42666 0.133331 2.39999 0.133331ZM13.6 0.133331C12.5733 0.133331 11.7333 0.973331 11.7333 2C11.7333 3.02666 12.5733 3.86666 13.6 3.86666C14.6267 3.86666 15.4667 3.02666 15.4667 2C15.4667 0.973331 14.6267 0.133331 13.6 0.133331ZM7.99999 0.133331C6.97333 0.133331 6.13333 0.973331 6.13333 2C6.13333 3.02666 6.97333 3.86666 7.99999 3.86666C9.02666 3.86666 9.86666 3.02666 9.86666 2C9.86666 0.973331 9.02666 0.133331 7.99999 0.133331Z" fill="#C3CAD9"/>
</svg>
